# xmcd CD database file
#
# Track frame offsets:
#	150
#	23800
#	56464
#	71981
#	99502
#	112860
#	114086
#
# Disc length: 2347 seconds
#
# Revision: 0
# Processed by: cddbd v1.5.2PL0 Copyright (c) Steve Scherf et al.
# Submitted via: CDex 1.51
#
DISCID=51092907
DTITLE=Michal Urbaniak - Fusion
DYEAR=1900
DGENRE=Jazz
TTITLE0=Good Times Bad Times
TTITLE1=Bahamian Harvest
TTITLE2=Impromptu
TTITLE3=Seresta
TTITLE4=Fusion
TTITLE5=Deep Mountain
TTITLE6=Bengal
EXTD=
EXTT0=
EXTT1=
EXTT2=
EXTT3=
EXTT4=
EXTT5=
EXTT6=
PLAYORDER=
